<?xml version="1.0" encoding="UTF-8" standalone="no"?>
<!DOCTYPE svg PUBLIC "-//W3C//DTD SVG 1.1//EN" "http://www.w3.org/Graphics/SVG/1.1/DTD/svg11.dtd">
<!-- Created with Vectornator (http://vectornator.io/) -->
<svg height="100%" stroke-miterlimit="10" style="fill-rule:nonzero;clip-rule:evenodd;stroke-linecap:round;stroke-linejoin:round;" version="1.1" viewBox="0 0 40 40" width="100%" xml:space="preserve" xmlns="http://www.w3.org/2000/svg" xmlns:xlink="http://www.w3.org/1999/xlink">
<defs/>
<g id="图层-1">
<path d="M17.9418 18.948C17.9418 18.8671 18.0074 18.8015 18.0883 18.8015L31.4393 18.8015C31.5202 18.8015 31.5858 18.8671 31.5858 18.948L31.5858 25.3943C31.5858 25.4752 31.5202 25.5408 31.4393 25.5408L18.0883 25.5408C18.0074 25.5408 17.9418 25.4752 17.9418 25.3943L17.9418 18.948Z" fill="#9bbbd0" fill-rule="nonzero" opacity="1" stroke="none"/>
<path d="M29.4254 1.22821C29.4254 1.1473 29.491 1.08171 29.5719 1.08171L38.8049 1.08171C38.8858 1.08171 38.9514 1.1473 38.9514 1.22821L38.9514 9.8687C38.9514 9.94961 38.8858 10.0152 38.8049 10.0152L29.5719 10.0152C29.491 10.0152 29.4254 9.94961 29.4254 9.8687L29.4254 1.22821Z" fill="#9aa7b0" fill-opacity="0.8" fill-rule="nonzero" opacity="1" stroke="none"/>
<path d="M14.8792 5.60491C14.8792 5.524 14.9448 5.45841 15.0257 5.45841L34.4302 5.45841C34.5111 5.45841 34.5767 5.524 34.5767 5.60491L34.5767 24.3238C34.5767 24.4047 34.5111 24.4703 34.4302 24.4703L15.0257 24.4703C14.9448 24.4703 14.8792 24.4047 14.8792 24.3238L14.8792 5.60491Z" fill="#9aa7b0" fill-opacity="0.8" fill-rule="nonzero" opacity="1" stroke="none"/>
<path d="M1.19727 25.6415C1.19727 25.5606 1.26286 25.495 1.34377 25.495L38.7158 25.495C38.7967 25.495 38.8623 25.5606 38.8623 25.6415L38.8623 38.7816C38.8623 38.8625 38.7967 38.9281 38.7158 38.9281L1.34377 38.9281C1.26286 38.9281 1.19727 38.8625 1.19727 38.7816L1.19727 25.6415Z" fill="#bc238b" fill-rule="nonzero" opacity="1" stroke="none"/>
<g opacity="1">
<path d="M7.86144 33.9148L7.86144 35.028C7.86144 35.2982 7.79797 35.5009 7.67101 35.6359C7.54406 35.771 7.38293 35.8386 7.18762 35.8386C6.99556 35.8386 6.83768 35.7702 6.71398 35.6335C6.59028 35.4968 6.52844 35.295 6.52844 35.028L6.52844 31.3171C6.52844 30.7181 6.74491 30.4187 7.17785 30.4187C7.3992 30.4187 7.55871 30.4886 7.65637 30.6286C7.75402 30.7686 7.80773 30.9753 7.8175 31.2487C7.977 30.9753 8.14058 30.7686 8.30822 30.6286C8.47586 30.4886 8.69966 30.4187 8.97961 30.4187C9.25956 30.4187 9.53137 30.4886 9.79504 30.6286C10.0587 30.7686 10.1905 30.9541 10.1905 31.1853C10.1905 31.348 10.1344 31.4823 10.0221 31.5881C9.90978 31.6939 9.78853 31.7468 9.65832 31.7468C9.60949 31.7468 9.49149 31.7167 9.30431 31.6564C9.11714 31.5962 8.95194 31.5661 8.80871 31.5661C8.6134 31.5661 8.45389 31.6174 8.33019 31.7199C8.2065 31.8225 8.11047 31.9746 8.04211 32.1765C7.97375 32.3783 7.92655 32.6184 7.90051 32.8967C7.87446 33.175 7.86144 33.5144 7.86144 33.9148Z" fill="#ffffff" fill-rule="nonzero" opacity="1" stroke="none"/>
<path d="M14.0382 35.0866C13.7159 35.3373 13.4042 35.5253 13.1031 35.6506C12.802 35.7759 12.4643 35.8386 12.09 35.8386C11.7482 35.8386 11.4479 35.771 11.1891 35.6359C10.9303 35.5009 10.7309 35.3177 10.5909 35.0866C10.451 34.8555 10.381 34.6049 10.381 34.3347C10.381 33.9701 10.4965 33.6592 10.7277 33.4021C10.9588 33.1449 11.2762 32.9724 11.6798 32.8845C11.7644 32.8649 11.9744 32.821 12.3097 32.7526C12.645 32.6843 12.9322 32.6216 13.1715 32.5647C13.4108 32.5077 13.6704 32.4385 13.9503 32.3571C13.934 32.0056 13.8632 31.7476 13.7379 31.5832C13.6126 31.4188 13.353 31.3366 12.9591 31.3366C12.6206 31.3366 12.3658 31.3838 12.1949 31.4782C12.024 31.5726 11.8776 31.7142 11.7555 31.903C11.6334 32.0918 11.5472 32.2163 11.4967 32.2766C11.4462 32.3368 11.338 32.3669 11.172 32.3669C11.0223 32.3669 10.8929 32.3189 10.7838 32.2229C10.6748 32.1268 10.6202 32.0039 10.6202 31.8542C10.6202 31.6198 10.7032 31.392 10.8693 31.1706C11.0353 30.9493 11.2941 30.767 11.6456 30.6237C11.9972 30.4805 12.435 30.4089 12.9591 30.4089C13.545 30.4089 14.0056 30.4781 14.3409 30.6164C14.6762 30.7548 14.913 30.9737 15.0514 31.2731C15.1897 31.5726 15.2589 31.9698 15.2589 32.4646C15.2589 32.7771 15.2581 33.0424 15.2565 33.2605C15.2548 33.4786 15.2524 33.7211 15.2491 33.988C15.2491 34.2386 15.2906 34.4999 15.3737 34.7717C15.4567 35.0435 15.4982 35.2185 15.4982 35.2966C15.4982 35.4333 15.4339 35.5578 15.3053 35.6701C15.1767 35.7824 15.031 35.8386 14.8683 35.8386C14.7316 35.8386 14.5965 35.7743 14.463 35.6457C14.3295 35.5171 14.1879 35.3308 14.0382 35.0866ZM13.9503 33.1579C13.755 33.2295 13.471 33.3052 13.0983 33.385C12.7255 33.4647 12.4676 33.5233 12.3243 33.5607C12.1811 33.5982 12.0444 33.6714 11.9142 33.7805C11.784 33.8895 11.7189 34.0417 11.7189 34.237C11.7189 34.4388 11.7954 34.6106 11.9484 34.7522C12.1014 34.8938 12.3015 34.9646 12.5489 34.9646C12.8126 34.9646 13.0559 34.9068 13.2789 34.7912C13.5019 34.6757 13.6655 34.5267 13.7696 34.3444C13.8901 34.1426 13.9503 33.8106 13.9503 33.3483L13.9503 33.1579Z" fill="#ffffff" fill-rule="nonzero" opacity="1" stroke="none"/>
<path d="M17.7101 29.198L17.7101 31.2341C17.9607 30.9737 18.2163 30.7743 18.4767 30.6359C18.7371 30.4976 19.0594 30.4284 19.4435 30.4284C19.8862 30.4284 20.2744 30.5334 20.608 30.7434C20.9417 30.9533 21.2005 31.2577 21.3844 31.6564C21.5683 32.0552 21.6603 32.528 21.6603 33.0749C21.6603 33.4786 21.609 33.8488 21.5065 34.1857C21.4039 34.5227 21.255 34.8148 21.0597 35.0622C20.8644 35.3096 20.6276 35.5009 20.3492 35.6359C20.0709 35.771 19.7641 35.8386 19.4288 35.8386C19.2237 35.8386 19.0309 35.8142 18.8502 35.7653C18.6695 35.7165 18.5157 35.6522 18.3888 35.5725C18.2618 35.4927 18.1536 35.4105 18.0641 35.3259C17.9746 35.2412 17.8566 35.1143 17.7101 34.945L17.7101 35.0769C17.7101 35.3275 17.6499 35.5171 17.5294 35.6457C17.409 35.7743 17.256 35.8386 17.0704 35.8386C16.8816 35.8386 16.7311 35.7743 16.6188 35.6457C16.5065 35.5171 16.4503 35.3275 16.4503 35.0769L16.4503 29.2565C16.4503 28.9864 16.5048 28.7821 16.6139 28.6438C16.7229 28.5054 16.8751 28.4362 17.0704 28.4362C17.2755 28.4362 17.4334 28.5022 17.5441 28.634C17.6547 28.7658 17.7101 28.9538 17.7101 29.198ZM17.7736 33.1579C17.7736 33.6885 17.8948 34.0962 18.1373 34.3811C18.3798 34.6659 18.698 34.8083 19.0919 34.8083C19.4272 34.8083 19.7161 34.6626 19.9586 34.3713C20.2011 34.08 20.3224 33.6625 20.3224 33.1189C20.3224 32.7673 20.2719 32.4646 20.171 32.2106C20.0701 31.9567 19.9269 31.7606 19.7413 31.6223C19.5558 31.4839 19.3393 31.4148 19.0919 31.4148C18.838 31.4148 18.6118 31.4839 18.4132 31.6223C18.2146 31.7606 18.0584 31.9608 17.9445 32.2229C17.8305 32.4849 17.7736 32.7966 17.7736 33.1579Z" fill="#ffffff" fill-rule="nonzero" opacity="1" stroke="none"/>
<path d="M23.8282 29.198L23.8282 31.2341C24.0789 30.9737 24.3344 30.7743 24.5948 30.6359C24.8553 30.4976 25.1775 30.4284 25.5616 30.4284C26.0043 30.4284 26.3925 30.5334 26.7262 30.7434C27.0598 30.9533 27.3186 31.2577 27.5026 31.6564C27.6865 32.0552 27.7784 32.528 27.7784 33.0749C27.7784 33.4786 27.7272 33.8488 27.6246 34.1857C27.5221 34.5227 27.3732 34.8148 27.1778 35.0622C26.9825 35.3096 26.7457 35.5009 26.4674 35.6359C26.1891 35.771 25.8823 35.8386 25.547 35.8386C25.3419 35.8386 25.149 35.8142 24.9684 35.7653C24.7877 35.7165 24.6339 35.6522 24.507 35.5725C24.38 35.4927 24.2718 35.4105 24.1822 35.3259C24.0927 35.2412 23.9747 35.1143 23.8282 34.945L23.8282 35.0769C23.8282 35.3275 23.768 35.5171 23.6476 35.6457C23.5271 35.7743 23.3741 35.8386 23.1886 35.8386C22.9998 35.8386 22.8492 35.7743 22.7369 35.6457C22.6246 35.5171 22.5685 35.3275 22.5685 35.0769L22.5685 29.2565C22.5685 28.9864 22.623 28.7821 22.732 28.6438C22.8411 28.5054 22.9933 28.4362 23.1886 28.4362C23.3937 28.4362 23.5515 28.5022 23.6622 28.634C23.7729 28.7658 23.8282 28.9538 23.8282 29.198ZM23.8917 33.1579C23.8917 33.6885 24.013 34.0962 24.2555 34.3811C24.498 34.6659 24.8162 34.8083 25.2101 34.8083C25.5454 34.8083 25.8343 34.6626 26.0768 34.3713C26.3193 34.08 26.4405 33.6625 26.4405 33.1189C26.4405 32.7673 26.3901 32.4646 26.2892 32.2106C26.1883 31.9567 26.045 31.7606 25.8595 31.6223C25.6739 31.4839 25.4575 31.4148 25.2101 31.4148C24.9562 31.4148 24.7299 31.4839 24.5314 31.6223C24.3328 31.7606 24.1765 31.9608 24.0626 32.2229C23.9487 32.4849 23.8917 32.7966 23.8917 33.1579Z" fill="#ffffff" fill-rule="nonzero" opacity="1" stroke="none"/>
<path d="M30.1808 31.1755L30.1808 35.028C30.1808 35.295 30.1173 35.4968 29.9903 35.6335C29.8634 35.7702 29.7023 35.8386 29.507 35.8386C29.3116 35.8386 29.1529 35.7686 29.0309 35.6286C28.9088 35.4886 28.8478 35.2884 28.8478 35.028L28.8478 31.2146C28.8478 30.9509 28.9088 30.7523 29.0309 30.6189C29.1529 30.4854 29.3116 30.4187 29.507 30.4187C29.7023 30.4187 29.8634 30.4854 29.9903 30.6189C30.1173 30.7523 30.1808 30.9379 30.1808 31.1755ZM29.5216 29.7985C29.3361 29.7985 29.1774 29.7416 29.0455 29.6276C28.9137 29.5137 28.8478 29.3526 28.8478 29.1442C28.8478 28.9554 28.9153 28.8 29.0504 28.6779C29.1855 28.5559 29.3426 28.4948 29.5216 28.4948C29.6941 28.4948 29.8471 28.5502 29.9806 28.6608C30.114 28.7715 30.1808 28.9327 30.1808 29.1442C30.1808 29.3493 30.1157 29.5096 29.9855 29.6252C29.8553 29.7408 29.7006 29.7985 29.5216 29.7985Z" fill="#ffffff" fill-rule="nonzero" opacity="1" stroke="none"/>
<path d="M31.631 30.5358L31.631 30.5358C31.7119 30.5358 31.7775 30.4702 31.7775 30.3893L31.7775 29.7351C31.7775 29.5202 31.7832 29.3518 31.7945 29.2297C31.8059 29.1076 31.8377 29.0026 31.8898 28.9148C31.9418 28.8236 32.0167 28.7495 32.1144 28.6926C32.212 28.6356 32.3211 28.6071 32.4415 28.6071C32.6108 28.6071 32.7638 28.6706 32.9005 28.7976C32.9917 28.8822 33.0494 28.9856 33.0738 29.1076C33.0983 29.2297 33.1105 29.403 33.1105 29.6276L33.1105 30.3893C33.1105 30.4702 33.1761 30.5358 33.257 30.5358L33.5987 30.5358C33.7876 30.5358 33.9316 30.5806 34.0309 30.6701C34.1302 30.7596 34.1798 30.8744 34.1798 31.0144C34.1798 31.1934 34.109 31.3187 33.9674 31.3903C33.8258 31.462 33.6232 31.4978 33.3595 31.4978L33.257 31.4978C33.1761 31.4978 33.1105 31.5634 33.1105 31.6443L33.1105 33.9489C33.1105 34.1573 33.1178 34.3176 33.1324 34.4299C33.1471 34.5422 33.1862 34.6333 33.2496 34.7033C33.3131 34.7733 33.4165 34.8083 33.5597 34.8083C33.6378 34.8083 33.7436 34.7945 33.8771 34.7668C34.0105 34.7391 34.1147 34.7253 34.1896 34.7253C34.297 34.7253 34.3938 34.7684 34.4801 34.8547C34.5664 34.941 34.6095 35.0476 34.6095 35.1745C34.6095 35.3894 34.4923 35.5537 34.2579 35.6677C34.0236 35.7816 33.6866 35.8386 33.2472 35.8386C32.8305 35.8386 32.5148 35.7686 32.2999 35.6286C32.0851 35.4886 31.9443 35.295 31.8776 35.0476C31.8108 34.8002 31.7775 34.4698 31.7775 34.0564L31.7775 31.6443C31.7775 31.5634 31.7119 31.4978 31.631 31.4978L31.6017 31.4978C31.4096 31.4978 31.2631 31.4522 31.1622 31.361C31.0613 31.2699 31.0109 31.1543 31.0109 31.0144C31.0109 30.8744 31.0638 30.7596 31.1695 30.6701C31.2753 30.5806 31.4292 30.5358 31.631 30.5358Z" fill="#ffffff" fill-rule="nonzero" opacity="1" stroke="none"/>
</g>
<path d="M1.27835 10.4854C1.27835 10.4045 1.34394 10.3389 1.42485 10.3389L13.5483 10.3389C13.6292 10.3389 13.6948 10.4045 13.6948 10.4854L13.6948 24.3433C13.6948 24.4242 13.6292 24.4898 13.5483 24.4898L1.42485 24.4898C1.34394 24.4898 1.27835 24.4242 1.27835 24.3433L1.27835 10.4854Z" fill="#728898" fill-rule="nonzero" opacity="1" stroke="none"/>
<path d="M2.59845 21.3554C2.59845 21.2745 2.66404 21.2089 2.74495 21.2089L12.3425 21.2089C12.4234 21.2089 12.489 21.2745 12.489 21.3554L12.489 23.2317C12.489 23.3126 12.4234 23.3782 12.3425 23.3782L2.74495 23.3782C2.66404 23.3782 2.59845 23.3126 2.59845 23.2317L2.59845 21.3554Z" fill="#aeb9c0" fill-rule="nonzero" opacity="1" stroke="none"/>
<path d="M2.60121 18.0691C2.60121 17.9882 2.6668 17.9226 2.74771 17.9226L12.3453 17.9226C12.4262 17.9226 12.4918 17.9882 12.4918 18.0691L12.4918 19.9454C12.4918 20.0263 12.4262 20.0919 12.3453 20.0919L2.74771 20.0919C2.6668 20.0919 2.60121 20.0263 2.60121 19.9454L2.60121 18.0691Z" fill="#aeb9c0" fill-rule="nonzero" opacity="1" stroke="none"/>
<path d="M2.60013 14.7416C2.60013 14.6607 2.66572 14.5951 2.74663 14.5951L12.3442 14.5951C12.4251 14.5951 12.4907 14.6607 12.4907 14.7416L12.4907 16.6179C12.4907 16.6988 12.4251 16.7644 12.3442 16.7644L2.74663 16.7644C2.66572 16.7644 2.60013 16.6988 2.60013 16.6179L2.60013 14.7416Z" fill="#aeb9c0" fill-rule="nonzero" opacity="1" stroke="none"/>
<path d="M2.59844 11.433C2.59844 11.3521 2.66403 11.2865 2.74494 11.2865L12.3425 11.2865C12.4234 11.2865 12.489 11.3521 12.489 11.433L12.489 13.3093C12.489 13.3902 12.4234 13.4558 12.3425 13.4558L2.74494 13.4558C2.66403 13.4558 2.59844 13.3902 2.59844 13.3093L2.59844 11.433Z" fill="#aeb9c0" fill-rule="nonzero" opacity="1" stroke="none"/>
<path d="M1.28352 1.30847C1.28352 1.22756 1.34911 1.16197 1.43002 1.16197L3.54202 1.16197C3.62293 1.16197 3.68852 1.22756 3.68852 1.30847L3.68852 9.1268C3.68852 9.20771 3.62293 9.2733 3.54202 9.2733L1.43002 9.2733C1.34911 9.2733 1.28352 9.20771 1.28352 9.1268L1.28352 1.30847Z" fill="#728898" fill-rule="nonzero" opacity="1" stroke="none"/>
<path d="M4.75598 7.02963C4.75598 6.94872 4.82157 6.88313 4.90248 6.88313L13.4582 6.88313C13.5391 6.88313 13.6047 6.94872 13.6047 7.02963L13.6047 9.1015C13.6047 9.18241 13.5391 9.248 13.4582 9.248L4.90248 9.248C4.82157 9.248 4.75598 9.18241 4.75598 9.1015L4.75598 7.02963Z" fill="#c94fa2" fill-rule="nonzero" opacity="1" stroke="none"/>
<g opacity="1">
<path d="M7.4107 8.48545L7.67587 8.0982C7.70926 8.04944 7.71008 7.98538 7.67795 7.93577L7.46148 7.60166C7.43609 7.5613 7.41705 7.52663 7.40435 7.49766C7.39166 7.46869 7.38531 7.44086 7.38531 7.41416C7.38531 7.38682 7.39752 7.36224 7.42193 7.34043C7.44635 7.31862 7.47613 7.30772 7.51129 7.30772C7.55165 7.30772 7.58306 7.3196 7.60552 7.34336C7.62799 7.36713 7.65907 7.41124 7.69879 7.47569L7.79308 7.62826C7.84933 7.71929 7.98102 7.72126 8.03996 7.63196L8.14312 7.47569C8.162 7.44639 8.17812 7.42133 8.19146 7.40049C8.20481 7.37966 8.21767 7.36241 8.23004 7.34874C8.24241 7.33506 8.25624 7.32481 8.27154 7.31797C8.28684 7.31114 8.30458 7.30772 8.32476 7.30772C8.36122 7.30772 8.39101 7.31862 8.41412 7.34043C8.43723 7.36224 8.44879 7.38812 8.44879 7.41807C8.44879 7.46169 8.42372 7.52094 8.37359 7.59581L8.14505 7.93743C8.11248 7.98612 8.11204 8.04953 8.14394 8.09866L8.39508 8.48545C8.42242 8.52647 8.44228 8.56049 8.45465 8.5875C8.46702 8.61452 8.4732 8.64008 8.4732 8.66416C8.4732 8.68695 8.46767 8.70778 8.4566 8.72666C8.44553 8.74554 8.42991 8.76052 8.40972 8.77159C8.38954 8.78265 8.36676 8.78819 8.34136 8.78819C8.31402 8.78819 8.29091 8.78249 8.27203 8.7711C8.25315 8.75971 8.23785 8.74554 8.22613 8.72862C8.21441 8.71169 8.1926 8.67881 8.1607 8.62999L8.03048 8.42507C7.97341 8.33526 7.84265 8.33433 7.78431 8.42333L7.64117 8.6417C7.62034 8.67426 7.60552 8.69704 7.59674 8.71006C7.58795 8.72308 7.57737 8.73578 7.565 8.74815C7.55263 8.76052 7.53798 8.77028 7.52105 8.77745C7.50413 8.78461 7.48427 8.78819 7.46148 8.78819C7.42633 8.78819 7.39719 8.77745 7.37408 8.75596C7.35097 8.73448 7.33941 8.70323 7.33941 8.66221C7.33941 8.61403 7.36317 8.55512 7.4107 8.48545Z" fill="#ffffff" fill-rule="nonzero" opacity="1" stroke="none"/>
<path d="M9.82281 8.58604C9.86513 8.61469 9.91135 8.64252 9.96148 8.66954C10.0116 8.69655 10.0448 8.71804 10.0611 8.73399C10.0774 8.74994 10.0855 8.77256 10.0855 8.80186C10.0855 8.82269 10.0759 8.84353 10.0567 8.86436C10.0375 8.88519 10.0142 8.89561 9.98687 8.89561C9.96474 8.89561 9.93788 8.88845 9.90631 8.87413C9.87473 8.8598 9.83762 8.83897 9.79498 8.81163C9.75233 8.78428 9.70562 8.75238 9.65484 8.71592C9.56044 8.7641 9.44455 8.78819 9.30718 8.78819C9.19586 8.78819 9.09608 8.77045 9.00787 8.73497C8.91965 8.69948 8.8456 8.64838 8.7857 8.58165C8.7258 8.51491 8.68072 8.43565 8.65045 8.34385C8.62017 8.25206 8.60504 8.15212 8.60504 8.04405C8.60504 7.93402 8.62082 7.83311 8.6524 7.74131C8.68398 7.64952 8.72971 7.57139 8.78961 7.50694C8.8495 7.44249 8.92242 7.39317 9.00836 7.35899C9.09429 7.32481 9.19195 7.30772 9.30133 7.30772C9.44976 7.30772 9.5772 7.33783 9.68365 7.39805C9.7901 7.45827 9.87066 7.54388 9.92535 7.65489C9.98004 7.76589 10.0074 7.89626 10.0074 8.046C10.0074 8.27321 9.94586 8.45323 9.82281 8.58604ZM9.59527 8.42784C9.63564 8.38161 9.66542 8.32693 9.68463 8.26377C9.70383 8.20062 9.71343 8.12738 9.71343 8.04405C9.71343 7.93923 9.69651 7.84841 9.66265 7.77159C9.6288 7.69476 9.58046 7.63666 9.51763 7.59727C9.45481 7.55788 9.38271 7.53819 9.30133 7.53819C9.24338 7.53819 9.18983 7.54909 9.14068 7.5709C9.09153 7.59271 9.04921 7.62445 9.01373 7.66612C8.97825 7.70778 8.95025 7.76101 8.92974 7.82579C8.90924 7.89056 8.89898 7.96332 8.89898 8.04405C8.89898 8.20876 8.93739 8.33555 9.01422 8.42442C9.09104 8.51329 9.18804 8.55772 9.30523 8.55772C9.35341 8.55772 9.40289 8.54763 9.45367 8.52745C9.42307 8.50466 9.38482 8.48187 9.33892 8.45909C9.29302 8.4363 9.26161 8.41872 9.24468 8.40635C9.22776 8.39398 9.21929 8.3764 9.21929 8.35362C9.21929 8.33409 9.22743 8.31683 9.24371 8.30186C9.25998 8.28689 9.27789 8.2794 9.29742 8.2794C9.35666 8.2794 9.45595 8.32888 9.59527 8.42784Z" fill="#ffffff" fill-rule="nonzero" opacity="1" stroke="none"/>
<path d="M10.5396 7.4835L10.5396 8.37899C10.5396 8.4599 10.6052 8.52549 10.6861 8.52549L11.1275 8.52549C11.1744 8.52549 11.2103 8.53689 11.2354 8.55967C11.2605 8.58246 11.273 8.6111 11.273 8.64561C11.273 8.68077 11.2606 8.70925 11.2359 8.73106C11.2112 8.75287 11.175 8.76377 11.1275 8.76377L10.4273 8.76377C10.3642 8.76377 10.3187 8.74978 10.2911 8.72178C10.2634 8.69379 10.2496 8.64854 10.2496 8.58604L10.2496 7.4835C10.2496 7.42491 10.2628 7.38096 10.2891 7.35166C10.3155 7.32237 10.3502 7.30772 10.3931 7.30772C10.4367 7.30772 10.4721 7.32221 10.4991 7.35118C10.5261 7.38015 10.5396 7.42426 10.5396 7.4835Z" fill="#ffffff" fill-rule="nonzero" opacity="1" stroke="none"/>
</g>
<path d="M36.0396 22.1096C36.0396 22.0287 36.1052 21.9631 36.1861 21.9631L38.6559 21.9631C38.7368 21.9631 38.8024 22.0287 38.8024 22.1096L38.8024 24.3418C38.8024 24.4227 38.7368 24.4883 38.6559 24.4883L36.1861 24.4883C36.1052 24.4883 36.0396 24.4227 36.0396 24.3418L36.0396 22.1096Z" fill="#c94fa2" fill-rule="nonzero" opacity="1" stroke="none"/>
<path d="M24.8403 6.38285C24.8403 6.30194 24.9059 6.23635 24.9868 6.23635L28.7574 6.23635C28.8383 6.23635 28.9039 6.30194 28.9039 6.38285L28.9039 9.85273C28.9039 9.93364 28.8383 9.99923 28.7574 9.99923L24.9868 9.99923C24.9059 9.99923 24.8403 9.93364 24.8403 9.85273L24.8403 6.38285Z" fill="#9aa7b0" fill-opacity="0.8" fill-rule="nonzero" opacity="1" stroke="none"/>
<path d="M27.179 3.60197C27.179 3.52106 27.2446 3.45547 27.3255 3.45547L29.2846 3.45547C29.3655 3.45547 29.4311 3.52106 29.4311 3.60197L29.4311 5.31448C29.4311 5.39539 29.3655 5.46098 29.2846 5.46098L27.3255 5.46098C27.2446 5.46098 27.179 5.39539 27.179 5.31448L27.179 3.60197Z" fill="#9aa7b0" fill-opacity="0.8" fill-rule="nonzero" opacity="1" stroke="none"/>
<path d="M4.80629 1.36346C4.80629 1.28255 4.87188 1.21696 4.95279 1.21696L8.32036 1.21696C8.40127 1.21696 8.46686 1.28255 8.46686 1.36346L8.46686 5.81644C8.46686 5.89735 8.40127 5.96294 8.32036 5.96294L4.95279 5.96294C4.87188 5.96294 4.80629 5.89735 4.80629 5.81644L4.80629 1.36346Z" fill="#4f6b7e" fill-opacity="0.8" fill-rule="nonzero" opacity="1" stroke="none"/>
<path d="M22.6955 10.1239C22.6955 10.043 22.7611 9.97743 22.842 9.97743L24.217 9.97743C24.2979 9.97743 24.3635 10.043 24.3635 10.1239L24.3635 11.5525C24.3635 11.6334 24.2979 11.699 24.217 11.699L22.842 11.699C22.7611 11.699 22.6955 11.6334 22.6955 11.5525L22.6955 10.1239Z" fill="#ffffff" fill-rule="nonzero" opacity="1" stroke="none"/>
<path d="M3.21661 12.1025C3.21661 12.0216 3.2822 11.956 3.36311 11.956L5.55066 11.956C5.63157 11.956 5.69716 12.0216 5.69716 12.1025L5.69716 12.6393C5.69716 12.7202 5.63157 12.7858 5.55066 12.7858L3.36311 12.7858C3.2822 12.7858 3.21661 12.7202 3.21661 12.6393L3.21661 12.1025Z" fill="#728898" fill-rule="nonzero" opacity="1" stroke="none"/>
<path d="M3.21009 15.4494C3.21009 15.3685 3.27568 15.3029 3.35659 15.3029L5.54414 15.3029C5.62505 15.3029 5.69064 15.3685 5.69064 15.4494L5.69064 15.9862C5.69064 16.0671 5.62505 16.1327 5.54414 16.1327L3.35659 16.1327C3.27568 16.1327 3.21009 16.0671 3.21009 15.9862L3.21009 15.4494Z" fill="#728898" fill-rule="nonzero" opacity="1" stroke="none"/>
<path d="M3.22512 18.7161C3.22512 18.6352 3.29071 18.5696 3.37162 18.5696L5.55917 18.5696C5.64008 18.5696 5.70567 18.6352 5.70567 18.7161L5.70567 19.2528C5.70567 19.3337 5.64008 19.3993 5.55917 19.3993L3.37162 19.3993C3.29071 19.3993 3.22512 19.3337 3.22512 19.2528L3.22512 18.7161Z" fill="#728898" fill-rule="nonzero" opacity="1" stroke="none"/>
<path d="M3.22617 22.0112C3.22617 21.9303 3.29176 21.8647 3.37267 21.8647L5.56022 21.8647C5.64113 21.8647 5.70672 21.9303 5.70672 22.0112L5.70672 22.548C5.70672 22.6289 5.64113 22.6945 5.56022 22.6945L3.37267 22.6945C3.29176 22.6945 3.22617 22.6289 3.22617 22.548L3.22617 22.0112Z" fill="#728898" fill-rule="nonzero" opacity="1" stroke="none"/>
<path d="M6.17451 12.0981C6.17451 12.0172 6.2401 11.9516 6.32101 11.9516L6.86329 11.9516C6.9442 11.9516 7.00979 12.0172 7.00979 12.0981L7.00979 12.6348C7.00979 12.7157 6.9442 12.7813 6.86329 12.7813L6.32101 12.7813C6.2401 12.7813 6.17451 12.7157 6.17451 12.6348L6.17451 12.0981Z" fill="#728898" fill-rule="nonzero" opacity="1" stroke="none"/>
<path d="M6.17822 15.4622C6.17822 15.3813 6.24381 15.3157 6.32472 15.3157L6.86699 15.3157C6.9479 15.3157 7.01349 15.3813 7.01349 15.4622L7.01349 15.999C7.01349 16.0799 6.9479 16.1455 6.86699 16.1455L6.32472 16.1455C6.24381 16.1455 6.17822 16.0799 6.17822 15.999L6.17822 15.4622Z" fill="#728898" fill-rule="nonzero" opacity="1" stroke="none"/>
<path d="M6.18161 18.7399C6.18161 18.659 6.2472 18.5934 6.32811 18.5934L6.87039 18.5934C6.9513 18.5934 7.01689 18.659 7.01689 18.7399L7.01689 19.2766C7.01689 19.3575 6.9513 19.4231 6.87039 19.4231L6.32811 19.4231C6.2472 19.4231 6.18161 19.3575 6.18161 19.2766L6.18161 18.7399Z" fill="#728898" fill-rule="nonzero" opacity="1" stroke="none"/>
<path d="M6.17839 22.0235C6.17839 21.9426 6.24398 21.877 6.32489 21.877L6.86716 21.877C6.94807 21.877 7.01366 21.9426 7.01366 22.0235L7.01366 22.5603C7.01366 22.6412 6.94807 22.7068 6.86716 22.7068L6.32489 22.7068C6.24398 22.7068 6.17839 22.6412 6.17839 22.5603L6.17839 22.0235Z" fill="#728898" fill-rule="nonzero" opacity="1" stroke="none"/>
</g>
</svg>
