<?xml version="1.0" encoding="UTF-8" standalone="no"?>
<!DOCTYPE svg PUBLIC "-//W3C//DTD SVG 1.1//EN" "http://www.w3.org/Graphics/SVG/1.1/DTD/svg11.dtd">
<!-- Created with Vectornator (http://vectornator.io/) -->
<svg height="40.0pt" stroke-miterlimit="10" style="fill-rule:nonzero;clip-rule:evenodd;stroke-linecap:round;stroke-linejoin:round;" version="1.1" viewBox="0 0 40 40" width="40.0pt" xml:space="preserve" xmlns="http://www.w3.org/2000/svg" xmlns:xlink="http://www.w3.org/1999/xlink">
<defs/>
<g id="图层-1">
<path d="M27.2397 1.26182C27.2397 1.16235 27.3203 1.08171 27.4198 1.08171L38.7713 1.08171C38.8707 1.08171 38.9514 1.16235 38.9514 1.26182L38.9514 11.8848C38.9514 11.9843 38.8707 12.065 38.7713 12.065L27.4198 12.065C27.3203 12.065 27.2397 11.9843 27.2397 11.8848L27.2397 1.26182Z" fill="#687f8f" fill-opacity="0.8" fill-rule="nonzero" opacity="1" stroke="none"/>
<path d="M14.8792 6.92844C14.8792 6.85321 14.9402 6.79222 15.0154 6.79222L33.0586 6.79222C33.1338 6.79222 33.1948 6.85321 33.1948 6.92844L33.1948 24.3341C33.1948 24.4093 33.1338 24.4703 33.0586 24.4703L15.0154 24.4703C14.9402 24.4703 14.8792 24.4093 14.8792 24.3341L14.8792 6.92844Z" fill="#687f8f" fill-opacity="0.8" fill-rule="nonzero" opacity="1" stroke="none"/>
<path d="M1.19727 25.6415C1.19727 25.5606 1.26286 25.495 1.34377 25.495L38.7158 25.495C38.7967 25.495 38.8623 25.5606 38.8623 25.6415L38.8623 38.7816C38.8623 38.8625 38.7967 38.9281 38.7158 38.9281L1.34377 38.9281C1.26286 38.9281 1.19727 38.8625 1.19727 38.7816L1.19727 25.6415Z" fill="#bc238b" fill-rule="nonzero" opacity="1" stroke="none"/>
<g opacity="1">
<path d="M7.29247 33.989L7.29247 35.1022C7.29247 35.3724 7.229 35.5751 7.10204 35.7101C6.97509 35.8452 6.81396 35.9128 6.61865 35.9128C6.42659 35.9128 6.26871 35.8444 6.14501 35.7077C6.02131 35.571 5.95947 35.3692 5.95947 35.1022L5.95947 31.3913C5.95947 30.7923 6.17594 30.4929 6.60888 30.4929C6.83023 30.4929 6.98974 30.5628 7.0874 30.7028C7.18505 30.8428 7.23876 31.0495 7.24853 31.3229C7.40803 31.0495 7.57161 30.8428 7.73925 30.7028C7.90689 30.5628 8.13069 30.4929 8.41064 30.4929C8.69059 30.4929 8.9624 30.5628 9.22607 30.7028C9.48973 30.8428 9.62153 31.0283 9.62153 31.2595C9.62153 31.4222 9.56543 31.5565 9.45313 31.6623C9.34081 31.7681 9.21956 31.821 9.08935 31.821C9.04052 31.821 8.92252 31.7909 8.73534 31.7306C8.54817 31.6704 8.38297 31.6403 8.23974 31.6403C8.04443 31.6403 7.88492 31.6916 7.76122 31.7941C7.63753 31.8967 7.5415 32.0487 7.47314 32.2507C7.40478 32.4525 7.35758 32.6926 7.33154 32.9709C7.30549 33.2492 7.29247 33.5886 7.29247 33.989Z" fill="#ffffff" fill-rule="nonzero" opacity="1" stroke="none"/>
<path d="M13.4692 35.1608C13.1469 35.4115 12.8352 35.5995 12.5341 35.7248C12.233 35.8501 11.8953 35.9128 11.521 35.9128C11.1792 35.9128 10.8789 35.8452 10.6201 35.7101C10.3613 35.5751 10.1619 35.3919 10.0219 35.1608C9.88203 34.9297 9.81203 34.6791 9.81203 34.4089C9.81203 34.0443 9.92753 33.7334 10.1587 33.4763C10.3898 33.2191 10.7072 33.0466 11.1108 32.9587C11.1954 32.9391 11.4054 32.8952 11.7407 32.8268C12.076 32.7585 12.3632 32.6958 12.6025 32.6389C12.8418 32.5819 13.1014 32.5127 13.3813 32.4313C13.365 32.0798 13.2942 31.8218 13.1689 31.6574C13.0436 31.493 12.784 31.4108 12.3901 31.4108C12.0516 31.4108 11.7968 31.458 11.6259 31.5524C11.455 31.6468 11.3086 31.7884 11.1865 31.9772C11.0644 32.166 10.9782 32.2904 10.9277 32.3508C10.8772 32.4109 10.769 32.4411 10.603 32.4411C10.4533 32.4411 10.3239 32.3931 10.2148 32.2971C10.1058 32.201 10.0512 32.0781 10.0512 31.9284C10.0512 31.694 10.1342 31.4662 10.3003 31.2448C10.4663 31.0235 10.7251 30.8412 11.0766 30.6979C11.4282 30.5547 11.866 30.4831 12.3901 30.4831C12.976 30.4831 13.4366 30.5523 13.7719 30.6906C14.1072 30.829 14.344 31.0479 14.4824 31.3473C14.6207 31.6468 14.6899 32.044 14.6899 32.5388C14.6899 32.8513 14.6891 33.1166 14.6875 33.3347C14.6858 33.5528 14.6834 33.7953 14.6801 34.0622C14.6801 34.3128 14.7216 34.574 14.8047 34.8459C14.8877 35.1177 14.9292 35.2927 14.9292 35.3708C14.9292 35.5075 14.8649 35.632 14.7363 35.7443C14.6077 35.8566 14.462 35.9128 14.2993 35.9128C14.1626 35.9128 14.0275 35.8484 13.894 35.7199C13.7605 35.5913 13.6189 35.405 13.4692 35.1608ZM13.3813 33.2321C13.186 33.3037 12.902 33.3794 12.5293 33.4592C12.1565 33.5389 11.8986 33.5975 11.7553 33.6349C11.6121 33.6724 11.4754 33.7456 11.3452 33.8547C11.215 33.9637 11.1499 34.1159 11.1499 34.3112C11.1499 34.513 11.2264 34.6848 11.3794 34.8264C11.5324 34.968 11.7325 35.0388 11.9799 35.0388C12.2436 35.0388 12.4869 34.9809 12.7099 34.8654C12.9329 34.7499 13.0965 34.6009 13.2006 34.4186C13.3211 34.2168 13.3813 33.8848 13.3813 33.4225L13.3813 33.2321Z" fill="#ffffff" fill-rule="nonzero" opacity="1" stroke="none"/>
<path d="M17.1411 29.2722L17.1411 31.3083C17.3917 31.0479 17.6473 30.8485 17.9077 30.7101C18.1681 30.5718 18.4904 30.5026 18.8745 30.5026C19.3172 30.5026 19.7054 30.6076 20.039 30.8176C20.3727 31.0275 20.6315 31.3319 20.8154 31.7306C20.9993 32.1294 21.0913 32.6022 21.0913 33.1491C21.0913 33.5528 21.04 33.923 20.9375 34.2599C20.8349 34.5969 20.686 34.889 20.4907 35.1364C20.2954 35.3838 20.0586 35.5751 19.7802 35.7101C19.5019 35.8452 19.1951 35.9128 18.8598 35.9128C18.6547 35.9128 18.4619 35.8884 18.2812 35.8395C18.1005 35.7907 17.9467 35.7264 17.8198 35.6467C17.6928 35.5669 17.5846 35.4847 17.4951 35.4001C17.4056 35.3154 17.2876 35.1885 17.1411 35.0192L17.1411 35.1511C17.1411 35.4017 17.0809 35.5913 16.9604 35.7199C16.84 35.8484 16.687 35.9128 16.5014 35.9128C16.3126 35.9128 16.1621 35.8484 16.0498 35.7199C15.9375 35.5913 15.8813 35.4017 15.8813 35.1511L15.8813 29.3307C15.8813 29.0606 15.9358 28.8563 16.0449 28.718C16.1539 28.5796 16.3061 28.5104 16.5014 28.5104C16.7065 28.5104 16.8644 28.5764 16.9751 28.7082C17.0857 28.84 17.1411 29.028 17.1411 29.2722ZM17.2046 33.2321C17.2046 33.7627 17.3258 34.1704 17.5683 34.4553C17.8108 34.7401 18.129 34.8825 18.5229 34.8825C18.8582 34.8825 19.1471 34.7368 19.3896 34.4455C19.6321 34.1542 19.7534 33.7367 19.7534 33.193C19.7534 32.8415 19.7029 32.5388 19.602 32.2848C19.5011 32.0309 19.3579 31.8348 19.1723 31.6965C18.9868 31.5581 18.7703 31.489 18.5229 31.489C18.269 31.489 18.0428 31.5581 17.8442 31.6965C17.6456 31.8348 17.4894 32.035 17.3755 32.2971C17.2615 32.5591 17.2046 32.8708 17.2046 33.2321Z" fill="#ffffff" fill-rule="nonzero" opacity="1" stroke="none"/>
<path d="M23.2592 29.2722L23.2592 31.3083C23.5099 31.0479 23.7654 30.8485 24.0258 30.7101C24.2863 30.5718 24.6085 30.5026 24.9926 30.5026C25.4353 30.5026 25.8235 30.6076 26.1572 30.8176C26.4908 31.0275 26.7496 31.3319 26.9336 31.7306C27.1175 32.1294 27.2094 32.6022 27.2094 33.1491C27.2094 33.5528 27.1582 33.923 27.0556 34.2599C26.9531 34.5969 26.8042 34.889 26.6088 35.1364C26.4135 35.3838 26.1767 35.5751 25.8984 35.7101C25.6201 35.8452 25.3133 35.9128 24.978 35.9128C24.7729 35.9128 24.58 35.8884 24.3994 35.8395C24.2187 35.7907 24.0649 35.7264 23.938 35.6467C23.811 35.5669 23.7028 35.4847 23.6132 35.4001C23.5237 35.3154 23.4057 35.1885 23.2592 35.0192L23.2592 35.1511C23.2592 35.4017 23.199 35.5913 23.0786 35.7199C22.9581 35.8484 22.8051 35.9128 22.6196 35.9128C22.4308 35.9128 22.2802 35.8484 22.1679 35.7199C22.0556 35.5913 21.9995 35.4017 21.9995 35.1511L21.9995 29.3307C21.9995 29.0606 22.054 28.8563 22.163 28.718C22.2721 28.5796 22.4243 28.5104 22.6196 28.5104C22.8247 28.5104 22.9825 28.5764 23.0932 28.7082C23.2039 28.84 23.2592 29.028 23.2592 29.2722ZM23.3227 33.2321C23.3227 33.7627 23.444 34.1704 23.6865 34.4553C23.929 34.7401 24.2472 34.8825 24.6411 34.8825C24.9764 34.8825 25.2653 34.7368 25.5078 34.4455C25.7503 34.1542 25.8715 33.7367 25.8715 33.193C25.8715 32.8415 25.8211 32.5388 25.7202 32.2848C25.6193 32.0309 25.476 31.8348 25.2905 31.6965C25.1049 31.5581 24.8885 31.489 24.6411 31.489C24.3872 31.489 24.1609 31.5581 23.9624 31.6965C23.7638 31.8348 23.6075 32.035 23.4936 32.2971C23.3797 32.5591 23.3227 32.8708 23.3227 33.2321Z" fill="#ffffff" fill-rule="nonzero" opacity="1" stroke="none"/>
<path d="M29.6118 31.2497L29.6118 35.1022C29.6118 35.3692 29.5483 35.571 29.4213 35.7077C29.2944 35.8444 29.1333 35.9128 28.938 35.9128C28.7426 35.9128 28.5839 35.8428 28.4619 35.7028C28.3398 35.5628 28.2788 35.3626 28.2788 35.1022L28.2788 31.2888C28.2788 31.0251 28.3398 30.8265 28.4619 30.6931C28.5839 30.5596 28.7426 30.4929 28.938 30.4929C29.1333 30.4929 29.2944 30.5596 29.4213 30.6931C29.5483 30.8265 29.6118 31.0121 29.6118 31.2497ZM28.9526 29.8727C28.7671 29.8727 28.6084 29.8158 28.4765 29.7018C28.3447 29.5879 28.2788 29.4268 28.2788 29.2184C28.2788 29.0296 28.3463 28.8742 28.4814 28.7521C28.6165 28.6301 28.7736 28.569 28.9526 28.569C29.1251 28.569 29.2781 28.6244 29.4116 28.735C29.545 28.8457 29.6118 29.0069 29.6118 29.2184C29.6118 29.4235 29.5467 29.5838 29.4165 29.6994C29.2863 29.815 29.1316 29.8727 28.9526 29.8727Z" fill="#ffffff" fill-rule="nonzero" opacity="1" stroke="none"/>
<path d="M31.062 30.61L31.062 30.61C31.1429 30.61 31.2085 30.5444 31.2085 30.4635L31.2085 29.8093C31.2085 29.5944 31.2142 29.426 31.2255 29.3039C31.2369 29.1818 31.2687 29.0768 31.3208 28.989C31.3728 28.8978 31.4477 28.8237 31.5454 28.7668C31.643 28.7098 31.7521 28.6813 31.8725 28.6813C32.0418 28.6813 32.1948 28.7448 32.3315 28.8718C32.4227 28.9564 32.4804 29.0598 32.5048 29.1818C32.5293 29.3039 32.5415 29.4772 32.5415 29.7018L32.5415 30.4635C32.5415 30.5444 32.6071 30.61 32.688 30.61L33.0297 30.61C33.2186 30.61 33.3626 30.6548 33.4619 30.7443C33.5612 30.8338 33.6108 30.9486 33.6108 31.0886C33.6108 31.2676 33.54 31.3929 33.3984 31.4645C33.2568 31.5362 33.0542 31.572 32.7905 31.572L32.688 31.572C32.6071 31.572 32.5415 31.6376 32.5415 31.7185L32.5415 34.0231C32.5415 34.2315 32.5488 34.3918 32.5634 34.5041C32.5781 34.6164 32.6172 34.7075 32.6806 34.7775C32.7441 34.8475 32.8475 34.8825 32.9907 34.8825C33.0688 34.8825 33.1746 34.8687 33.3081 34.841C33.4415 34.8133 33.5457 34.7995 33.6206 34.7995C33.728 34.7995 33.8248 34.8426 33.9111 34.9289C33.9974 35.0152 34.0405 35.1218 34.0405 35.2487C34.0405 35.4636 33.9233 35.6279 33.6889 35.7419C33.4546 35.8558 33.1176 35.9128 32.6782 35.9128C32.2615 35.9128 31.9458 35.8428 31.7309 35.7028C31.5161 35.5628 31.3753 35.3692 31.3086 35.1218C31.2418 34.8743 31.2085 34.544 31.2085 34.1305L31.2085 31.7185C31.2085 31.6376 31.1429 31.572 31.062 31.572L31.0327 31.572C30.8406 31.572 30.6941 31.5264 30.5932 31.4352C30.4923 31.3441 30.4419 31.2285 30.4419 31.0886C30.4419 30.9486 30.4948 30.8338 30.6005 30.7443C30.7063 30.6548 30.8602 30.61 31.062 30.61Z" fill="#ffffff" fill-rule="nonzero" opacity="1" stroke="none"/>
</g>
<path d="M1.27835 13.3279C1.27835 13.2634 1.34394 13.2111 1.42485 13.2111L13.5483 13.2111C13.6292 13.2111 13.6948 13.2634 13.6948 13.3279L13.6948 24.373C13.6948 24.4375 13.6292 24.4898 13.5483 24.4898L1.42485 24.4898C1.34394 24.4898 1.27835 24.4375 1.27835 24.373L1.27835 13.3279Z" fill="#728898" fill-rule="nonzero" opacity="1" stroke="none"/>
<path d="M2.59845 21.3554C2.59845 21.2745 2.66404 21.2089 2.74495 21.2089L12.3425 21.2089C12.4234 21.2089 12.489 21.2745 12.489 21.3554L12.489 23.2317C12.489 23.3126 12.4234 23.3782 12.3425 23.3782L2.74495 23.3782C2.66404 23.3782 2.59845 23.3126 2.59845 23.2317L2.59845 21.3554Z" fill="#aeb9c0" fill-rule="nonzero" opacity="1" stroke="none"/>
<path d="M2.60121 18.0691C2.60121 17.9882 2.6668 17.9226 2.74771 17.9226L12.3453 17.9226C12.4262 17.9226 12.4918 17.9882 12.4918 18.0691L12.4918 19.9454C12.4918 20.0263 12.4262 20.0919 12.3453 20.0919L2.74771 20.0919C2.6668 20.0919 2.60121 20.0263 2.60121 19.9454L2.60121 18.0691Z" fill="#aeb9c0" fill-rule="nonzero" opacity="1" stroke="none"/>
<path d="M1.40474 1.70993C1.40474 1.60474 1.5578 1.51947 1.7466 1.51947L6.67503 1.51947C6.86383 1.51947 7.01689 1.60474 7.01689 1.70993L7.01689 11.8745C7.01689 11.9797 6.86383 12.065 6.67503 12.065L1.7466 12.065C1.5578 12.065 1.40474 11.9797 1.40474 11.8745L1.40474 1.70993Z" fill="#728898" fill-rule="nonzero" opacity="1" stroke="none"/>
<path d="M2.60401 14.6075C2.60401 14.5225 2.6773 14.4537 2.76771 14.4537L12.3281 14.4537C12.4185 14.4537 12.4918 14.5225 12.4918 14.6075L12.4918 16.7834C12.4918 16.8684 12.4185 16.9373 12.3281 16.9373L2.76771 16.9373C2.6773 16.9373 2.60401 16.8684 2.60401 16.7834L2.60401 14.6075Z" fill="#c94fa2" fill-rule="nonzero" opacity="1" stroke="none"/>
<g opacity="1">
<path d="M3.29641 16.0792L3.56158 15.692C3.59497 15.6432 3.59579 15.5792 3.56366 15.5296L3.34719 15.1955C3.3218 15.1551 3.30276 15.1204 3.29006 15.0915C3.27737 15.0625 3.27102 15.0347 3.27102 15.008C3.27102 14.9806 3.28323 14.956 3.30764 14.9342C3.33206 14.9124 3.36184 14.9015 3.397 14.9015C3.43736 14.9015 3.46877 14.9134 3.49123 14.9372C3.5137 14.9609 3.54478 15.005 3.5845 15.0695L3.67879 15.2221C3.73504 15.3131 3.86673 15.3151 3.92567 15.2258L4.02883 15.0695C4.04771 15.0402 4.06383 15.0151 4.07717 14.9943C4.09052 14.9735 4.10338 14.9562 4.11575 14.9425C4.12812 14.9289 4.14195 14.9186 4.15725 14.9118C4.17255 14.9049 4.19029 14.9015 4.21047 14.9015C4.24693 14.9015 4.27672 14.9124 4.29983 14.9342C4.32294 14.956 4.3345 14.9819 4.3345 15.0119C4.3345 15.0555 4.30943 15.1147 4.2593 15.1896L4.03076 15.5312C3.99819 15.5799 3.99775 15.6433 4.02965 15.6925L4.28079 16.0792C4.30813 16.1203 4.32799 16.1543 4.34036 16.1813C4.35273 16.2083 4.35891 16.2339 4.35891 16.258C4.35891 16.2807 4.35338 16.3016 4.34231 16.3205C4.33124 16.3393 4.31562 16.3543 4.29543 16.3654C4.27525 16.3764 4.25247 16.382 4.22707 16.382C4.19973 16.382 4.17662 16.3763 4.15774 16.3649C4.13886 16.3535 4.12356 16.3393 4.11184 16.3224C4.10012 16.3055 4.07831 16.2726 4.04641 16.2238L3.91619 16.0189C3.85912 15.9291 3.72836 15.9281 3.67002 16.0171L3.52688 16.2355C3.50605 16.2681 3.49123 16.2908 3.48245 16.3039C3.47366 16.3169 3.46308 16.3296 3.45071 16.3419C3.43834 16.3543 3.42369 16.3641 3.40676 16.3712C3.38984 16.3784 3.36998 16.382 3.34719 16.382C3.31204 16.382 3.2829 16.3712 3.25979 16.3498C3.23668 16.3283 3.22512 16.297 3.22512 16.256C3.22512 16.2078 3.24888 16.1489 3.29641 16.0792Z" fill="#ffffff" fill-rule="nonzero" opacity="1" stroke="none"/>
<path d="M5.70852 16.1798C5.75084 16.2085 5.79706 16.2363 5.84719 16.2633C5.89731 16.2903 5.93051 16.3118 5.94681 16.3278C5.96311 16.3437 5.97121 16.3664 5.97121 16.3957C5.97121 16.4165 5.96161 16.4373 5.94241 16.4582C5.92321 16.479 5.89991 16.4894 5.87258 16.4894C5.85045 16.4894 5.82359 16.4822 5.79202 16.4679C5.76044 16.4536 5.72333 16.4328 5.68069 16.4054C5.63804 16.3781 5.59133 16.3462 5.54055 16.3097C5.44615 16.3579 5.33026 16.382 5.19289 16.382C5.08157 16.382 4.98179 16.3642 4.89358 16.3288C4.80536 16.2933 4.73131 16.2422 4.67141 16.1754C4.61151 16.1087 4.56643 16.0294 4.53616 15.9376C4.50588 15.8459 4.49075 15.7459 4.49075 15.6378C4.49075 15.5278 4.50653 15.4269 4.53811 15.3351C4.56969 15.2433 4.61542 15.1652 4.67532 15.1007C4.73521 15.0363 4.80813 14.987 4.89407 14.9528C4.98 14.9186 5.07766 14.9015 5.18704 14.9015C5.33547 14.9015 5.46291 14.9316 5.56936 14.9918C5.67581 15.0521 5.75637 15.1377 5.81106 15.2487C5.86575 15.3597 5.89311 15.4901 5.89311 15.6398C5.89311 15.867 5.83157 16.047 5.70852 16.1798ZM5.48098 16.0216C5.52135 15.9754 5.55113 15.9207 5.57034 15.8576C5.58954 15.7944 5.59914 15.7212 5.59914 15.6378C5.59914 15.533 5.58222 15.4422 5.54836 15.3654C5.51451 15.2886 5.46617 15.2305 5.40334 15.1911C5.34052 15.1517 5.26842 15.132 5.18704 15.132C5.12909 15.132 5.07554 15.1429 5.02639 15.1647C4.97724 15.1865 4.93492 15.2182 4.89944 15.2599C4.86396 15.3016 4.83596 15.3548 4.81545 15.4196C4.79495 15.4844 4.78469 15.5571 4.78469 15.6378C4.78469 15.8026 4.8231 15.9293 4.89993 16.0182C4.97675 16.1071 5.07375 16.1515 5.19094 16.1515C5.23912 16.1515 5.2886 16.1414 5.33938 16.1212C5.30878 16.0985 5.27053 16.0757 5.22463 16.0529C5.17873 16.0301 5.14732 16.0125 5.13039 16.0001C5.11347 15.9878 5.105 15.9702 5.105 15.9474C5.105 15.9279 5.11314 15.9106 5.12942 15.8957C5.14569 15.8807 5.1636 15.8732 5.18313 15.8732C5.24237 15.8732 5.34166 15.9227 5.48098 16.0216Z" fill="#ffffff" fill-rule="nonzero" opacity="1" stroke="none"/>
<path d="M6.42531 15.0773L6.42531 15.9728C6.42531 16.0537 6.49091 16.1193 6.57181 16.1193L7.01321 16.1193C7.06011 16.1193 7.09601 16.1307 7.12111 16.1535C7.14621 16.1763 7.15871 16.2049 7.15871 16.2394C7.15871 16.2746 7.14631 16.303 7.12161 16.3249C7.09691 16.3467 7.06071 16.3576 7.01321 16.3576L6.31301 16.3576C6.24991 16.3576 6.20441 16.3436 6.17681 16.3156C6.14911 16.2876 6.13531 16.2423 6.13531 16.1798L6.13531 15.0773C6.13531 15.0187 6.14851 14.9748 6.17481 14.9455C6.20121 14.9162 6.23591 14.9015 6.27881 14.9015C6.32241 14.9015 6.35781 14.916 6.38481 14.945C6.41181 14.9739 6.42531 15.0181 6.42531 15.0773Z" fill="#ffffff" fill-rule="nonzero" opacity="1" stroke="none"/>
</g>
<path d="M34.3167 20.2604C34.3167 20.1166 34.4232 20 34.5546 20L38.5645 20C38.6959 20 38.8024 20.1166 38.8024 20.2604L38.8024 24.2279C38.8024 24.3717 38.6959 24.4883 38.5645 24.4883L34.5546 24.4883C34.4232 24.4883 34.3167 24.3717 34.3167 24.2279L34.3167 20.2604Z" fill="#c94fa2" fill-rule="nonzero" opacity="1" stroke="none"/>
<path d="M8.26888 6.29028C8.26888 6.18869 8.3661 6.10634 8.48603 6.10634L13.4776 6.10634C13.5976 6.10634 13.6948 6.18869 13.6948 6.29028L13.6948 11.881C13.6948 11.9826 13.5976 12.065 13.4776 12.065L8.48603 12.065C8.3661 12.065 8.26888 11.9826 8.26888 11.881L8.26888 6.29028Z" fill="#4f6b7e" fill-opacity="0.8" fill-rule="nonzero" opacity="1" stroke="none"/>
<path d="M24.324 10.7273C24.324 10.5129 24.5084 10.3391 24.7359 10.3391L28.6018 10.3391C28.8292 10.3391 29.0137 10.5129 29.0137 10.7273L29.0137 14.5133C29.0137 14.7277 28.8292 14.9015 28.6018 14.9015L24.7359 14.9015C24.5084 14.9015 24.324 14.7277 24.324 14.5133L24.324 10.7273Z" fill="#ffffff" fill-rule="nonzero" opacity="1" stroke="none"/>
<path d="M3.22512 18.7161C3.22512 18.6352 3.29071 18.5696 3.37162 18.5696L5.55917 18.5696C5.64008 18.5696 5.70567 18.6352 5.70567 18.7161L5.70567 19.2528C5.70567 19.3337 5.64008 19.3993 5.55917 19.3993L3.37162 19.3993C3.29071 19.3993 3.22512 19.3337 3.22512 19.2528L3.22512 18.7161Z" fill="#728898" fill-rule="nonzero" opacity="1" stroke="none"/>
<path d="M3.22617 22.0112C3.22617 21.9303 3.29176 21.8647 3.37267 21.8647L5.56022 21.8647C5.64113 21.8647 5.70672 21.9303 5.70672 22.0112L5.70672 22.548C5.70672 22.6289 5.64113 22.6945 5.56022 22.6945L3.37267 22.6945C3.29176 22.6945 3.22617 22.6289 3.22617 22.548L3.22617 22.0112Z" fill="#728898" fill-rule="nonzero" opacity="1" stroke="none"/>
<path d="M6.18161 18.7399C6.18161 18.659 6.2472 18.5934 6.32811 18.5934L6.87039 18.5934C6.9513 18.5934 7.01689 18.659 7.01689 18.7399L7.01689 19.2766C7.01689 19.3575 6.9513 19.4231 6.87039 19.4231L6.32811 19.4231C6.2472 19.4231 6.18161 19.3575 6.18161 19.2766L6.18161 18.7399Z" fill="#728898" fill-rule="nonzero" opacity="1" stroke="none"/>
<path d="M6.17839 22.0235C6.17839 21.9426 6.24398 21.877 6.32489 21.877L6.86716 21.877C6.94807 21.877 7.01366 21.9426 7.01366 22.0235L7.01366 22.5603C7.01366 22.6412 6.94807 22.7068 6.86716 22.7068L6.32489 22.7068C6.24398 22.7068 6.17839 22.6412 6.17839 22.5603L6.17839 22.0235Z" fill="#728898" fill-rule="nonzero" opacity="1" stroke="none"/>
</g>
</svg>
