<?xml version="1.0" encoding="UTF-8" standalone="no"?>
<!DOCTYPE svg PUBLIC "-//W3C//DTD SVG 1.1//EN" "http://www.w3.org/Graphics/SVG/1.1/DTD/svg11.dtd">
<!-- Created with Vectornator (http://vectornator.io/) -->
<svg height="40.0pt" stroke-miterlimit="10" style="fill-rule:nonzero;clip-rule:evenodd;stroke-linecap:round;stroke-linejoin:round;" version="1.1" viewBox="0 0 40 40" width="40.0pt" xml:space="preserve" xmlns="http://www.w3.org/2000/svg" xmlns:xlink="http://www.w3.org/1999/xlink">
<defs/>
<g id="图层-1">
<path d="M26.981 1.73915C26.981 1.64224 27.0595 1.56367 27.1565 1.56367L38.2159 1.56367C38.3128 1.56367 38.3914 1.64224 38.3914 1.73915L38.3914 12.0888C38.3914 12.1858 38.3128 12.2644 38.2159 12.2644L27.1565 12.2644C27.0595 12.2644 26.981 12.1858 26.981 12.0888L26.981 1.73915Z" fill="#687f8f" fill-opacity="0.8" fill-rule="nonzero" opacity="1" stroke="none"/>
<path d="M14.9385 7.25997C14.9385 7.18668 14.998 7.12726 15.0712 7.12726L32.6502 7.12726C32.7235 7.12726 32.7829 7.18668 32.7829 7.25997L32.7829 24.2178C32.7829 24.2911 32.7235 24.3505 32.6502 24.3505L15.0712 24.3505C14.998 24.3505 14.9385 24.2911 14.9385 24.2178L14.9385 7.25997Z" fill="#687f8f" fill-opacity="0.8" fill-rule="nonzero" opacity="1" stroke="none"/>
<path d="M1.60861 25.4916C1.60861 25.4128 1.67252 25.3488 1.75134 25.3488L38.1618 25.3488C38.2407 25.3488 38.3046 25.4128 38.3046 25.4916L38.3046 38.2936C38.3046 38.3724 38.2407 38.4363 38.1618 38.4363L1.75134 38.4363C1.67252 38.4363 1.60861 38.3724 1.60861 38.2936L1.60861 25.4916Z" fill="#bc238b" fill-rule="nonzero" opacity="1" stroke="none"/>
<g opacity="1">
<path d="M7.54699 33.6243L7.54699 34.7089C7.54699 34.9721 7.48516 35.1696 7.36146 35.3011C7.23778 35.4327 7.08079 35.4986 6.89051 35.4986C6.70339 35.4986 6.54957 35.432 6.42906 35.2988C6.30854 35.1656 6.24829 34.969 6.24829 34.7089L6.24829 31.0934C6.24829 30.5099 6.45919 30.2182 6.88099 30.2182C7.09665 30.2182 7.25205 30.2863 7.3472 30.4227C7.44234 30.5591 7.49467 30.7604 7.50418 31.0268C7.65958 30.7604 7.81895 30.5591 7.98228 30.4227C8.14561 30.2863 8.36365 30.2182 8.63639 30.2182C8.90914 30.2182 9.17396 30.2863 9.43084 30.4227C9.68772 30.5591 9.81613 30.7398 9.81613 30.965C9.81613 31.1235 9.76147 31.2544 9.65206 31.3575C9.54263 31.4605 9.4245 31.5121 9.29764 31.5121C9.25007 31.5121 9.1351 31.4828 8.95274 31.424C8.77039 31.3654 8.60944 31.336 8.46989 31.336C8.27961 31.336 8.1242 31.386 8.00368 31.4859C7.88318 31.5858 7.78962 31.7339 7.72302 31.9307C7.65641 32.1273 7.61043 32.3613 7.58506 32.6324C7.55968 32.9035 7.54699 33.2342 7.54699 33.6243Z" fill="#ffffff" fill-rule="nonzero" opacity="1" stroke="none"/>
<path d="M13.5648 34.766C13.2508 35.0102 12.9471 35.1934 12.6538 35.3154C12.3604 35.4375 12.0314 35.4986 11.6667 35.4986C11.3337 35.4986 11.0411 35.4327 10.789 35.3011C10.5369 35.1696 10.3426 34.9911 10.2062 34.766C10.0699 34.5408 10.0017 34.2966 10.0017 34.0334C10.0017 33.6782 10.1143 33.3753 10.3395 33.1248C10.5646 32.8742 10.8739 32.7062 11.2671 32.6205C11.3495 32.6014 11.5541 32.5586 11.8808 32.492C12.2075 32.4255 12.4873 32.3644 12.7204 32.3089C12.9535 32.2534 13.2065 32.186 13.4792 32.1067C13.4633 31.7642 13.3943 31.5129 13.2722 31.3527C13.1502 31.1925 12.8972 31.1124 12.5135 31.1124C12.1837 31.1124 11.9354 31.1584 11.7689 31.2504C11.6024 31.3424 11.4598 31.4803 11.3408 31.6643C11.2219 31.8482 11.1379 31.9694 11.0887 32.0283C11.0395 32.0868 10.9341 32.1162 10.7723 32.1162C10.6265 32.1162 10.5004 32.0695 10.3941 31.9759C10.2879 31.8823 10.2347 31.7626 10.2347 31.6167C10.2347 31.3884 10.3156 31.1664 10.4774 30.9507C10.6392 30.7351 10.8913 30.5575 11.2338 30.4179C11.5763 30.2784 12.0029 30.2086 12.5135 30.2086C13.0843 30.2086 13.533 30.276 13.8597 30.4108C14.1864 30.5456 14.4171 30.7589 14.5519 31.0506C14.6867 31.3424 14.7541 31.7293 14.7541 32.2114C14.7541 32.5159 14.7533 32.7744 14.7518 32.9868C14.7501 33.1993 14.7478 33.4356 14.7446 33.6956C14.7446 33.9398 14.785 34.1943 14.8659 34.4592C14.9468 34.724 14.9872 34.8945 14.9872 34.9706C14.9872 35.1037 14.9246 35.225 14.7993 35.3344C14.674 35.4439 14.5321 35.4986 14.3735 35.4986C14.2404 35.4986 14.1087 35.4359 13.9787 35.3107C13.8486 35.1854 13.7107 35.0039 13.5648 34.766ZM13.4792 32.8869C13.2889 32.9566 13.0122 33.0304 12.6491 33.1081C12.2859 33.1858 12.0346 33.2429 11.895 33.2793C11.7555 33.3159 11.6223 33.3872 11.4955 33.4935C11.3686 33.5997 11.3052 33.7479 11.3052 33.9382C11.3052 34.1348 11.3797 34.3022 11.5288 34.4402C11.6778 34.5781 11.8728 34.6471 12.1138 34.6471C12.3707 34.6471 12.6078 34.5907 12.825 34.4782C13.0423 34.3656 13.2017 34.2205 13.3031 34.0429C13.4205 33.8462 13.4792 33.5228 13.4792 33.0724L13.4792 32.8869Z" fill="#ffffff" fill-rule="nonzero" opacity="1" stroke="none"/>
<path d="M17.1422 29.0289L17.1422 31.0126C17.3864 30.7589 17.6354 30.5646 17.8891 30.4298C18.1428 30.295 18.4568 30.2276 18.831 30.2276C19.2623 30.2276 19.6406 30.3299 19.9656 30.5345C20.2907 30.739 20.5428 31.0356 20.722 31.424C20.9012 31.8125 20.9908 32.2732 20.9908 32.806C20.9908 33.1993 20.9408 33.56 20.841 33.8882C20.741 34.2166 20.5959 34.5011 20.4057 34.7422C20.2154 34.9832 19.9847 35.1696 19.7134 35.3011C19.4423 35.4327 19.1434 35.4986 18.8167 35.4986C18.6169 35.4986 18.4291 35.4748 18.253 35.4272C18.0769 35.3796 17.9271 35.317 17.8035 35.2394C17.6797 35.1616 17.5743 35.0815 17.4871 34.9991C17.3999 34.9166 17.285 34.7929 17.1422 34.628L17.1422 34.7565C17.1422 35.0007 17.0836 35.1854 16.9662 35.3107C16.8489 35.4359 16.6998 35.4986 16.519 35.4986C16.335 35.4986 16.1884 35.4359 16.079 35.3107C15.9696 35.1854 15.9148 35.0007 15.9148 34.7565L15.9148 29.0859C15.9148 28.8227 15.9679 28.6237 16.0742 28.4889C16.1804 28.3541 16.3287 28.2867 16.519 28.2867C16.7188 28.2867 16.8727 28.351 16.9805 28.4794C17.0883 28.6078 17.1422 28.7909 17.1422 29.0289ZM17.2041 32.8869C17.2041 33.4038 17.3222 33.801 17.5584 34.0786C17.7947 34.3561 18.1047 34.4948 18.4885 34.4948C18.8152 34.4948 19.0966 34.3529 19.3329 34.0691C19.5691 33.7853 19.6873 33.3785 19.6873 32.8488C19.6873 32.5063 19.6381 32.2114 19.5398 31.964C19.4415 31.7166 19.302 31.5255 19.1212 31.3908C18.9404 31.2559 18.7295 31.1886 18.4885 31.1886C18.2411 31.1886 18.0207 31.2559 17.8272 31.3908C17.6338 31.5255 17.4816 31.7206 17.3706 31.9759C17.2595 32.2312 17.2041 32.5349 17.2041 32.8869Z" fill="#ffffff" fill-rule="nonzero" opacity="1" stroke="none"/>
<path d="M23.1029 29.0289L23.1029 31.0126C23.3472 30.7589 23.5961 30.5646 23.8498 30.4298C24.1036 30.295 24.4175 30.2276 24.7917 30.2276C25.223 30.2276 25.6012 30.3299 25.9264 30.5345C26.2514 30.739 26.5035 31.0356 26.6828 31.424C26.862 31.8125 26.9515 32.2732 26.9515 32.806C26.9515 33.1993 26.9016 33.56 26.8016 33.8882C26.7018 34.2166 26.5567 34.5011 26.3663 34.7422C26.1761 34.9832 25.9454 35.1696 25.6742 35.3011C25.4031 35.4327 25.1042 35.4986 24.7775 35.4986C24.5777 35.4986 24.3897 35.4748 24.2138 35.4272C24.0377 35.3796 23.8879 35.317 23.7643 35.2394C23.6405 35.1616 23.5351 35.0815 23.4478 34.9991C23.3606 34.9166 23.2457 34.7929 23.1029 34.628L23.1029 34.7565C23.1029 35.0007 23.0443 35.1854 22.927 35.3107C22.8096 35.4359 22.6605 35.4986 22.4798 35.4986C22.2958 35.4986 22.1491 35.4359 22.0397 35.3107C21.9303 35.1854 21.8756 35.0007 21.8756 34.7565L21.8756 29.0859C21.8756 28.8227 21.9287 28.6237 22.0349 28.4889C22.1412 28.3541 22.2895 28.2867 22.4798 28.2867C22.6796 28.2867 22.8333 28.351 22.9412 28.4794C23.049 28.6078 23.1029 28.7909 23.1029 29.0289ZM23.1648 32.8869C23.1648 33.4038 23.283 33.801 23.5192 34.0786C23.7555 34.3561 24.0655 34.4948 24.4493 34.4948C24.7759 34.4948 25.0574 34.3529 25.2937 34.0691C25.5299 33.7853 25.648 33.3785 25.648 32.8488C25.648 32.5063 25.5989 32.2114 25.5006 31.964C25.4023 31.7166 25.2627 31.5255 25.082 31.3908C24.9011 31.2559 24.6903 31.1886 24.4493 31.1886C24.2019 31.1886 23.9814 31.2559 23.788 31.3908C23.5945 31.5255 23.4423 31.7206 23.3313 31.9759C23.2203 32.2312 23.1648 32.5349 23.1648 32.8869Z" fill="#ffffff" fill-rule="nonzero" opacity="1" stroke="none"/>
<path d="M29.2921 30.9555L29.2921 34.7089C29.2921 34.969 29.2302 35.1656 29.1065 35.2988C28.9828 35.432 28.8259 35.4986 28.6356 35.4986C28.4452 35.4986 28.2906 35.4304 28.1718 35.294C28.0528 35.1576 27.9934 34.9626 27.9934 34.7089L27.9934 30.9936C27.9934 30.7367 28.0528 30.5432 28.1718 30.4132C28.2906 30.2831 28.4452 30.2182 28.6356 30.2182C28.8259 30.2182 28.9828 30.2831 29.1065 30.4132C29.2302 30.5432 29.2921 30.724 29.2921 30.9555ZM28.6498 29.6139C28.4691 29.6139 28.3145 29.5585 28.186 29.4474C28.0576 29.3364 27.9934 29.1795 27.9934 28.9764C27.9934 28.7925 28.0591 28.6411 28.1908 28.5221C28.3224 28.4033 28.4754 28.3438 28.6498 28.3438C28.8179 28.3438 28.967 28.3977 29.097 28.5055C29.227 28.6133 29.2921 28.7704 29.2921 28.9764C29.2921 29.1763 29.2287 29.3324 29.1018 29.4451C28.975 29.5577 28.8242 29.6139 28.6498 29.6139Z" fill="#ffffff" fill-rule="nonzero" opacity="1" stroke="none"/>
<path d="M30.705 30.3322L30.705 30.3322C30.7838 30.3322 30.8477 30.2683 30.8477 30.1895L30.8477 29.5521C30.8477 29.3428 30.8533 29.1787 30.8643 29.0597C30.8754 28.9408 30.9064 28.8385 30.9571 28.7529C31.0078 28.6641 31.0807 28.5919 31.1759 28.5365C31.271 28.4809 31.3773 28.4532 31.4946 28.4532C31.6596 28.4532 31.8086 28.515 31.9418 28.6388C32.0307 28.7212 32.0869 28.8219 32.1106 28.9408C32.1345 29.0597 32.1464 29.2286 32.1464 29.4474L32.1464 30.1895C32.1464 30.2683 32.2103 30.3322 32.2891 30.3322L32.622 30.3322C32.8061 30.3322 32.9464 30.3759 33.0431 30.4631C33.1399 30.5503 33.1882 30.6621 33.1882 30.7985C33.1882 30.9729 33.1192 31.095 32.9813 31.1648C32.8433 31.2346 32.6459 31.2695 32.389 31.2695L32.2891 31.2695C32.2103 31.2695 32.1464 31.3334 32.1464 31.4122L32.1464 33.6575C32.1464 33.8606 32.1535 34.0167 32.1677 34.1262C32.1821 34.2356 32.2202 34.3243 32.2819 34.3925C32.3438 34.4607 32.4445 34.4948 32.584 34.4948C32.6601 34.4948 32.7632 34.4814 32.8933 34.4544C33.0232 34.4274 33.1248 34.414 33.1977 34.414C33.3024 34.414 33.3967 34.4559 33.4808 34.54C33.5648 34.6241 33.6068 34.728 33.6068 34.8516C33.6068 35.061 33.4927 35.221 33.2643 35.3321C33.036 35.4431 32.7077 35.4986 32.2796 35.4986C31.8736 35.4986 31.566 35.4304 31.3567 35.294C31.1474 35.1576 31.0102 34.969 30.9452 34.728C30.8801 34.4868 30.8477 34.165 30.8477 33.7622L30.8477 31.4122C30.8477 31.3334 30.7838 31.2695 30.705 31.2695L30.6764 31.2695C30.4893 31.2695 30.3465 31.2251 30.2482 31.1362C30.1499 31.0475 30.1008 30.9348 30.1008 30.7985C30.1008 30.6621 30.1524 30.5503 30.2553 30.4631C30.3584 30.3759 30.5084 30.3322 30.705 30.3322Z" fill="#ffffff" fill-rule="nonzero" opacity="1" stroke="none"/>
</g>
<path d="M1.68761 13.4948C1.68761 13.4319 1.75151 13.381 1.83034 13.381L13.6419 13.381C13.7207 13.381 13.7846 13.4319 13.7846 13.4948L13.7846 24.2557C13.7846 24.3186 13.7207 24.3695 13.6419 24.3695L1.83034 24.3695C1.75151 24.3695 1.68761 24.3186 1.68761 24.2557L1.68761 13.4948Z" fill="#728898" fill-rule="nonzero" opacity="1" stroke="none"/>
<path d="M17.3476 17.4392C17.3476 17.3604 17.4338 17.2965 17.54 17.2965L30.1433 17.2965C30.2495 17.2965 30.3357 17.3604 30.3357 17.4392L30.3357 19.2672C30.3357 19.3461 30.2495 19.41 30.1433 19.41L17.54 19.41C17.4338 19.41 17.3476 19.3461 17.3476 19.2672L17.3476 17.4392Z" fill="#aeb9c0" fill-rule="nonzero" opacity="1" stroke="none"/>
<path d="M17.3449 20.6496C17.3449 20.5708 17.431 20.5069 17.5373 20.5069L30.1406 20.5069C30.2468 20.5069 30.3329 20.5708 30.3329 20.6496L30.3329 22.4777C30.3329 22.5565 30.2468 22.6204 30.1406 22.6204L17.5373 22.6204C17.431 22.6204 17.3449 22.5565 17.3449 22.4777L17.3449 20.6496Z" fill="#aeb9c0" fill-rule="nonzero" opacity="1" stroke="none"/>
<path d="M17.3449 14.3179C17.3449 14.239 17.431 14.1751 17.5373 14.1751L30.1433 14.1751C30.2495 14.1751 30.3357 14.239 30.3357 14.3179L30.3357 16.1459C30.3357 16.2247 30.2495 16.2886 30.1433 16.2886L17.5373 16.2886C17.431 16.2886 17.3449 16.2247 17.3449 16.1459L17.3449 14.3179Z" fill="#aeb9c0" fill-rule="nonzero" opacity="1" stroke="none"/>
<path d="M1.81075 2.17573C1.81075 2.07324 1.95987 1.99017 2.14381 1.99017L6.94544 1.99017C7.12938 1.99017 7.2785 2.07324 7.2785 2.17573L7.2785 12.0788C7.2785 12.1813 7.12938 12.2644 6.94544 12.2644L2.14381 12.2644C1.95987 12.2644 1.81075 12.1813 1.81075 12.0788L1.81075 2.17573Z" fill="#728898" fill-rule="nonzero" opacity="1" stroke="none"/>
<path d="M17.3667 9.28955C17.3667 9.15199 17.463 9.04065 17.5817 9.04065L30.1397 9.04065C30.2585 9.04065 30.3547 9.15199 30.3547 9.28955L30.3547 12.8109C30.3547 12.9484 30.2585 13.0599 30.1397 13.0599L17.5817 13.0599C17.463 13.0599 17.3667 12.9484 17.3667 12.8109L17.3667 9.28955Z" fill="#c94fa2" fill-rule="nonzero" opacity="1" stroke="none"/>
<g opacity="1">
<path d="M21.2033 11.5839L21.572 11.0455C21.6184 10.9776 21.6196 10.8887 21.5749 10.8197L21.2739 10.3551C21.2386 10.299 21.2121 10.2507 21.1945 10.2105C21.1768 10.1702 21.168 10.1316 21.168 10.0944C21.168 10.0563 21.185 10.0221 21.2189 9.99181C21.2529 9.9615 21.2943 9.94635 21.3432 9.94635C21.3993 9.94635 21.443 9.96289 21.4742 9.99598C21.5054 10.0289 21.5487 10.0903 21.6039 10.1799L21.735 10.3921C21.8132 10.5187 21.9963 10.5214 22.0783 10.3973L22.2217 10.1799C22.248 10.1392 22.2704 10.1043 22.2889 10.0754C22.3075 10.0465 22.3254 10.0224 22.3426 10.0034C22.3598 9.98444 22.379 9.97012 22.4003 9.96067C22.4215 9.95107 22.4462 9.94635 22.4743 9.94635C22.525 9.94635 22.5664 9.9615 22.5985 9.99181C22.6307 10.0221 22.6467 10.0581 22.6467 10.0999C22.6467 10.1605 22.6119 10.2428 22.5422 10.3469L22.2244 10.8219C22.1791 10.8896 22.1785 10.9778 22.2228 11.0462L22.572 11.5839C22.6101 11.641 22.6377 11.6883 22.6549 11.7258C22.6721 11.7634 22.6807 11.799 22.6807 11.8325C22.6807 11.864 22.673 11.8931 22.6576 11.9194C22.6422 11.9455 22.6205 11.9664 22.5924 11.9818C22.5643 11.9971 22.5327 12.0049 22.4974 12.0049C22.4593 12.0049 22.4272 11.997 22.401 11.9811C22.3747 11.9653 22.3534 11.9455 22.3371 11.922C22.3208 11.8985 22.2905 11.8528 22.2462 11.7849L22.0651 11.5C21.9857 11.3752 21.8039 11.3738 21.7228 11.4975L21.5238 11.8012C21.4948 11.8465 21.4742 11.8781 21.462 11.8963C21.4498 11.9144 21.4351 11.932 21.4179 11.9491C21.4007 11.9664 21.3803 11.98 21.3568 11.9899C21.3332 11.9999 21.3056 12.0049 21.2739 12.0049C21.2251 12.0049 21.1845 11.9899 21.1524 11.9601C21.1203 11.9302 21.1042 11.8867 21.1042 11.8297C21.1042 11.7627 21.1372 11.6808 21.2033 11.5839Z" fill="#ffffff" fill-rule="nonzero" opacity="1" stroke="none"/>
<path d="M24.5572 11.7238C24.6161 11.7637 24.6803 11.8023 24.75 11.8399C24.8197 11.8774 24.8659 11.9073 24.8886 11.9295C24.9112 11.9516 24.9225 11.9832 24.9225 12.024C24.9225 12.0529 24.9091 12.0818 24.8824 12.1109C24.8557 12.1398 24.8233 12.1542 24.7853 12.1542C24.7546 12.1542 24.7172 12.1442 24.6733 12.1243C24.6294 12.1045 24.5778 12.0755 24.5185 12.0374C24.4592 11.9995 24.3943 11.9551 24.3237 11.9044C24.1924 11.9714 24.0313 12.0049 23.8403 12.0049C23.6855 12.0049 23.5467 11.9802 23.4241 11.9309C23.3014 11.8816 23.1985 11.8105 23.1152 11.7176C23.0319 11.6249 22.9692 11.5146 22.9271 11.387C22.885 11.2595 22.864 11.1204 22.864 10.9701C22.864 10.8172 22.8859 10.6769 22.9298 10.5492C22.9737 10.4216 23.0373 10.313 23.1206 10.2233C23.2039 10.1338 23.3053 10.0652 23.4248 10.0177C23.5443 9.97012 23.6801 9.94635 23.8321 9.94635C24.0385 9.94635 24.2157 9.9882 24.3637 10.0719C24.5117 10.1557 24.6238 10.2748 24.6998 10.4291C24.7758 10.5834 24.8139 10.7648 24.8139 10.9729C24.8139 11.2888 24.7283 11.5391 24.5572 11.7238ZM24.2408 11.5038C24.297 11.4395 24.3384 11.3635 24.3651 11.2758C24.3918 11.1879 24.4051 11.0861 24.4051 10.9701C24.4051 10.8244 24.3816 10.6982 24.3345 10.5914C24.2875 10.4846 24.2203 10.4038 24.1329 10.349C24.0455 10.2942 23.9453 10.2668 23.8321 10.2668C23.7516 10.2668 23.6771 10.282 23.6088 10.3123C23.5404 10.3426 23.4816 10.3867 23.4322 10.4447C23.3829 10.5027 23.344 10.5766 23.3155 10.6667C23.287 10.7568 23.2727 10.8579 23.2727 10.9701C23.2727 11.1993 23.3261 11.3754 23.4329 11.4991C23.5397 11.6227 23.6746 11.6844 23.8376 11.6844C23.9046 11.6844 23.9734 11.6704 24.044 11.6423C24.0014 11.6107 23.9482 11.579 23.8844 11.5473C23.8206 11.5156 23.7769 11.4911 23.7534 11.4739C23.7298 11.4568 23.7181 11.4323 23.7181 11.4006C23.7181 11.3735 23.7294 11.3494 23.752 11.3287C23.7746 11.3079 23.7995 11.2974 23.8267 11.2974C23.9091 11.2974 24.0471 11.3663 24.2408 11.5038Z" fill="#ffffff" fill-rule="nonzero" opacity="1" stroke="none"/>
<path d="M25.5539 10.1908L25.5539 11.4359C25.5539 11.5484 25.6451 11.6396 25.7576 11.6396L26.3713 11.6396C26.4365 11.6396 26.4865 11.6555 26.5214 11.6872C26.5563 11.7189 26.5736 11.7587 26.5736 11.8066C26.5736 11.8556 26.5564 11.8951 26.5221 11.9255C26.4877 11.9558 26.4374 11.971 26.3713 11.971L25.3977 11.971C25.31 11.971 25.2467 11.9515 25.2084 11.9126C25.1698 11.8736 25.1507 11.8107 25.1507 11.7238L25.1507 10.1908C25.1507 10.1093 25.169 10.0483 25.2056 10.0075C25.2423 9.96678 25.2905 9.94635 25.3502 9.94635C25.4108 9.94635 25.46 9.96651 25.4976 10.0068C25.5351 10.047 25.5539 10.1085 25.5539 10.1908Z" fill="#ffffff" fill-rule="nonzero" opacity="1" stroke="none"/>
</g>
<path d="M33.9343 20.2314C33.9343 20.0913 34.038 19.9777 34.1661 19.9777L38.0728 19.9777C38.2008 19.9777 38.3046 20.0913 38.3046 20.2314L38.3046 24.0968C38.3046 24.2369 38.2008 24.3505 38.0728 24.3505L34.1661 24.3505C34.038 24.3505 33.9343 24.2369 33.9343 24.0968L33.9343 20.2314Z" fill="#c94fa2" fill-rule="nonzero" opacity="1" stroke="none"/>
<path d="M8.49828 6.63823C8.49828 6.53926 8.593 6.45902 8.70984 6.45902L13.573 6.45902C13.6899 6.45902 13.7846 6.53926 13.7846 6.63823L13.7846 12.0851C13.7846 12.1841 13.6899 12.2644 13.573 12.2644L8.70984 12.2644C8.593 12.2644 8.49828 12.1841 8.49828 12.0851L8.49828 6.63823Z" fill="#4f6b7e" fill-opacity="0.8" fill-rule="nonzero" opacity="1" stroke="none"/>
<path d="M3.16706 15.3432C3.16706 15.1343 3.34672 14.965 3.56837 14.965L7.3348 14.965C7.55635 14.965 7.7361 15.1343 7.7361 15.3432L7.7361 19.0318C7.7361 19.2406 7.55635 19.41 7.3348 19.41L3.56837 19.41C3.34672 19.41 3.16706 19.2406 3.16706 19.0318L3.16706 15.3432Z" fill="#ffffff" fill-rule="nonzero" opacity="1" stroke="none"/>
<path d="M18.0646 14.9704C18.0646 14.8916 18.1667 14.8277 18.2926 14.8277L21.6974 14.8277C21.8234 14.8277 21.9255 14.8916 21.9255 14.9704L21.9255 15.4933C21.9255 15.5721 21.8234 15.636 21.6974 15.636L18.2926 15.636C18.1667 15.636 18.0646 15.5721 18.0646 15.4933L18.0646 14.9704Z" fill="#728898" fill-rule="nonzero" opacity="1" stroke="none"/>
<path d="M18.0646 18.0917C18.0646 18.0129 18.1667 17.949 18.2926 17.949L21.6974 17.949C21.8234 17.949 21.9255 18.0129 21.9255 18.0917L21.9255 18.6147C21.9255 18.6935 21.8234 18.7575 21.6974 18.7575L18.2926 18.7575C18.1667 18.7575 18.0646 18.6935 18.0646 18.6147L18.0646 18.0917Z" fill="#728898" fill-rule="nonzero" opacity="1" stroke="none"/>
<path d="M18.0646 21.3022C18.0646 21.2233 18.1667 21.1594 18.2926 21.1594L21.6974 21.1594C21.8234 21.1594 21.9255 21.2233 21.9255 21.3022L21.9255 21.8251C21.9255 21.904 21.8234 21.9679 21.6974 21.9679L18.2926 21.9679C18.1667 21.9679 18.0646 21.904 18.0646 21.8251L18.0646 21.3022Z" fill="#728898" fill-rule="nonzero" opacity="1" stroke="none"/>
<path d="M22.3324 14.9704C22.3324 14.8916 22.3963 14.8277 22.4751 14.8277L23.0034 14.8277C23.0822 14.8277 23.1461 14.8916 23.1461 14.9704L23.1461 15.4933C23.1461 15.5721 23.0822 15.636 23.0034 15.636L22.4751 15.636C22.3963 15.636 22.3324 15.5721 22.3324 15.4933L22.3324 14.9704Z" fill="#728898" fill-rule="nonzero" opacity="1" stroke="none"/>
<path d="M22.3324 18.0917C22.3324 18.0129 22.3963 17.949 22.4751 17.949L23.0034 17.949C23.0822 17.949 23.1461 18.0129 23.1461 18.0917L23.1461 18.6147C23.1461 18.6935 23.0822 18.7575 23.0034 18.7575L22.4751 18.7575C22.3963 18.7575 22.3324 18.6935 22.3324 18.6147L22.3324 18.0917Z" fill="#728898" fill-rule="nonzero" opacity="1" stroke="none"/>
<path d="M22.3324 21.3022C22.3324 21.2233 22.3963 21.1594 22.4751 21.1594L23.0034 21.1594C23.0822 21.1594 23.1461 21.2233 23.1461 21.3022L23.1461 21.8251C23.1461 21.904 23.0822 21.9679 23.0034 21.9679L22.4751 21.9679C22.3963 21.9679 22.3324 21.904 22.3324 21.8251L22.3324 21.3022Z" fill="#728898" fill-rule="nonzero" opacity="1" stroke="none"/>
</g>
</svg>
